<?xml version="1.0" encoding="UTF-8"?>
<svg width="7px" height="8px" viewBox="0 0 7 8" version="1.1" xmlns="http://www.w3.org/2000/svg" xmlns:xlink="http://www.w3.org/1999/xlink">
    <!-- Generator: Sketch 52.3 (67297) - http://www.bohemiancoding.com/sketch -->
    <title>路径</title>
    <desc>Created with Sketch.</desc>
    <g id="Page-1" stroke="none" stroke-width="1" fill="none" fill-rule="evenodd">
        <g id="Artboard" transform="translate(-1139.000000, -454.000000)" fill="#FFFFFF" fill-rule="nonzero">
            <path d="M1144.5048,457.5625 L1142.18911,455.246812 C1142.02331,455.075147 1142.02568,454.802275 1142.19444,454.633517 C1142.3632,454.464758 1142.63607,454.462387 1142.80774,454.628188 L1145.87024,457.690688 C1146.04103,457.861531 1146.04103,458.138469 1145.87024,458.309312 L1142.80774,461.371812 C1142.63607,461.537613 1142.3632,461.535242 1142.19444,461.366483 C1142.02568,461.197725 1142.02331,460.924853 1142.18911,460.753188 L1144.5048,458.4375 L1139.44183,458.4375 C1139.20021,458.4375 1139.00433,458.241625 1139.00433,458 C1139.00433,457.758375 1139.20021,457.5625 1139.44183,457.5625 L1144.5048,457.5625 Z" id="路径"></path>
        </g>
    </g>
</svg>